<svg xmlns="http://www.w3.org/2000/svg" id="export" class="canvas" preserveAspectRatio="xMidYMid meet" style="" width="556" height="140"><rect id="background" fill="#fff" pointer-events="all" width="556" height="140"/><g id="origin" transform="translate(6.3500000000000005, 6.3500000000000005) scale(1)"><g id="clusters" class="clusters"/><g id="edge-paths" class="edge-paths"><defs><marker id="arrowhead" viewBox="0 0 10 10" refX="9" refY="5" markerUnits="strokeWidth" markerWidth="8" markerHeight="6" orient="auto" style="fill: rgb(0, 0, 0);"><path d="M 0 0 L 10 5 L 0 10 L 4 5 z" style="stroke-width: 1;"/></marker><marker id="arrowhead-select" viewBox="0 0 10 10" refX="9" refY="5" markerUnits="strokeWidth" markerWidth="8" markerHeight="6" orient="auto" style="fill: rgb(238, 0, 0);"><path d="M 0 0 L 10 5 L 0 10 L 4 5 z" style="stroke-width: 1;"/></marker><marker id="arrowhead-hover" viewBox="0 0 10 10" refX="9" refY="5" markerUnits="strokeWidth" markerWidth="8" markerHeight="6" orient="auto" style="fill: rgb(238, 0, 0);"><path d="M 0 0 L 10 5 L 0 10 L 4 5 z" style="stroke-width: 1;"/></marker></defs><path class="edge-path-hover" d="M49.84326171875,41.5L51.515055338541664,41.5C53.186848958333336,41.5,56.530436197916664,41.5,62.632080078125,41.5C68.73372395833333,41.5,77.59342447916667,41.5,86.453125,41.5C95.31282552083333,41.5,104.17252604166667,41.5,111.97622218276514,43.25C119.77991832386363,45,126.52761008522727,48.5,129.9014559659091,50.25L133.2753018465909,52" style="pointer-events: stroke; stroke-width: 0.5em; fill: none; stroke-opacity: 0;"/><path id="edge-input_1" class="edge-path" d="M49.84326171875,41.5L51.515055338541664,41.5C53.186848958333336,41.5,56.530436197916664,41.5,62.632080078125,41.5C68.73372395833333,41.5,77.59342447916667,41.5,86.453125,41.5C95.31282552083333,41.5,104.17252604166667,41.5,111.97622218276514,43.25C119.77991832386363,45,126.52761008522727,48.5,129.9014559659091,50.25L133.2753018465909,52" style="stroke: rgb(0, 0, 0); stroke-width: 1px; fill: none; marker-end: url(&quot;#arrowhead&quot;);"/><path class="edge-path-hover" d="M49.8740234375,85.5L51.540690104166664,85.5C53.207356770833336,85.5,56.540690104166664,85.5,62.63720703125,85.5C68.73372395833333,85.5,77.59342447916667,85.5,86.453125,85.5C95.31282552083333,85.5,104.17252604166667,85.5,111.97622218276514,83.75C119.77991832386363,82,126.52761008522727,78.5,129.9014559659091,76.75L133.2753018465909,75" style="pointer-events: stroke; stroke-width: 0.5em; fill: none; stroke-opacity: 0;"/><path id="edge-input_2" class="edge-path" d="M49.8740234375,85.5L51.540690104166664,85.5C53.207356770833336,85.5,56.540690104166664,85.5,62.63720703125,85.5C68.73372395833333,85.5,77.59342447916667,85.5,86.453125,85.5C95.31282552083333,85.5,104.17252604166667,85.5,111.97622218276514,83.75C119.77991832386363,82,126.52761008522727,78.5,129.9014559659091,76.75L133.2753018465909,75" style="stroke: rgb(0, 0, 0); stroke-width: 1px; fill: none; marker-end: url(&quot;#arrowhead&quot;);"/><path class="edge-path-hover" d="M187.8603515625,63.5L191.86165364583334,63.5C195.86295572916666,63.5,203.86555989583334,63.5,211.8681640625,63.5C219.87076822916666,63.5,227.87337239583334,63.5,231.87467447916666,63.5L235.8759765625,63.5" style="pointer-events: stroke; stroke-width: 0.5em; fill: none; stroke-opacity: 0;"/><path id="edge-model" class="edge-path" d="M187.8603515625,63.5L191.86165364583334,63.5C195.86295572916666,63.5,203.86555989583334,63.5,211.8681640625,63.5C219.87076822916666,63.5,227.87337239583334,63.5,231.87467447916666,63.5L235.8759765625,63.5" style="stroke: rgb(0, 0, 0); stroke-width: 1px; fill: none; marker-end: url(&quot;#arrowhead&quot;);"/><path class="edge-path-hover" d="M438.64013671875,63.5L443.0555013020833,63.5C447.4708658854167,63.5,456.3015950520833,63.5,465.13232421875,63.5C473.9630533854167,63.5,482.7937825520833,63.5,487.2091471354167,63.5L491.62451171875,63.5" style="pointer-events: stroke; stroke-width: 0.5em; fill: none; stroke-opacity: 0;"/><path id="edge-lambda" class="edge-path" d="M438.64013671875,63.5L443.0555013020833,63.5C447.4708658854167,63.5,456.3015950520833,63.5,465.13232421875,63.5C473.9630533854167,63.5,482.7937825520833,63.5,487.2091471354167,63.5L491.62451171875,63.5" style="stroke: rgb(0, 0, 0); stroke-width: 1px; fill: none; marker-end: url(&quot;#arrowhead&quot;);"/></g><g id="edge-labels" class="edge-labels"><text class="edge-label" id="edge-label-edge-input_1" style="opacity: 1; font-family: -apple-system, BlinkMacSystemFont, &quot;Segoe WPC&quot;, &quot;Segoe UI&quot;, Ubuntu, &quot;Droid Sans&quot;, sans-serif, &quot;PingFang SC&quot;; font-size: 10px;" transform="translate(70.171875,51.5)"><tspan xml:space="preserve" dy="1em" x="1">input_1</tspan></text><text class="edge-label" id="edge-label-edge-input_2" style="opacity: 1; font-family: -apple-system, BlinkMacSystemFont, &quot;Segoe WPC&quot;, &quot;Segoe UI&quot;, Ubuntu, &quot;Droid Sans&quot;, sans-serif, &quot;PingFang SC&quot;; font-size: 10px;" transform="translate(69.8740234375,95.5)"><tspan xml:space="preserve" dy="1em" x="1">input_2</tspan></text><text class="edge-label" id="edge-label-edge-model" style="opacity: 1; font-family: -apple-system, BlinkMacSystemFont, &quot;Segoe WPC&quot;, &quot;Segoe UI&quot;, Ubuntu, &quot;Droid Sans&quot;, sans-serif, &quot;PingFang SC&quot;; font-size: 10px;" transform="translate(197.8603515625,73.5)"><tspan xml:space="preserve" dy="1em" x="1">model</tspan></text><text class="edge-label" id="edge-label-edge-lambda" style="opacity: 1; font-family: -apple-system, BlinkMacSystemFont, &quot;Segoe WPC&quot;, &quot;Segoe UI&quot;, Ubuntu, &quot;Droid Sans&quot;, sans-serif, &quot;PingFang SC&quot;; font-size: 10px;" transform="translate(448.64013671875,73.5)"><tspan xml:space="preserve" dy="1em" x="1">lambda</tspan></text></g><g id="nodes" class="nodes"><g id="input-name-input_1" class="node graph-input" style="opacity: 1;" transform="translate(0.03076171875,30)"><g class="node-item graph-item-input" transform="translate(0,0)"><path d="M5,0h39.8125a5,5 0 0 1 5,5v13a5,5 0 0 1 -5,5h-39.8125a5,5 0 0 1 -5,-5v-13a5,5 0 0 1 5,-5z" style="stroke: rgb(0, 0, 0); fill: rgb(238, 238, 238); stroke-width: 0;"/><text x="6" y="16" style="font-family: -apple-system, BlinkMacSystemFont, &quot;Segoe WPC&quot;, &quot;Segoe UI&quot;, Ubuntu, &quot;Droid Sans&quot;, sans-serif, &quot;PingFang SC&quot;; font-size: 11px; text-rendering: geometricprecision;">input_1</text><title>float32[?,224,224,3]</title></g><path class="node border" d="M5,0h39.8125a5,5 0 0 1 5,5v13a5,5 0 0 1 -5,5h-39.8125a5,5 0 0 1 -5,-5v-13a5,5 0 0 1 5,-5z" style="stroke: rgb(51, 51, 51); fill: none; stroke-width: 1px;"/></g><g id="input-name-input_2" class="node graph-input" style="opacity: 1;" transform="translate(0,74)"><g class="node-item graph-item-input" transform="translate(0,0)"><path d="M5,0h39.8740234375a5,5 0 0 1 5,5v13a5,5 0 0 1 -5,5h-39.8740234375a5,5 0 0 1 -5,-5v-13a5,5 0 0 1 5,-5z" style="stroke: rgb(0, 0, 0); fill: rgb(238, 238, 238); stroke-width: 0;"/><text x="6" y="16" style="font-family: -apple-system, BlinkMacSystemFont, &quot;Segoe WPC&quot;, &quot;Segoe UI&quot;, Ubuntu, &quot;Droid Sans&quot;, sans-serif, &quot;PingFang SC&quot;; font-size: 11px; text-rendering: geometricprecision;">input_2</text><title>float32[?,224,224,3]</title></g><path class="node border" d="M5,0h39.8740234375a5,5 0 0 1 5,5v13a5,5 0 0 1 -5,5h-39.8740234375a5,5 0 0 1 -5,-5v-13a5,5 0 0 1 5,-5z" style="stroke: rgb(51, 51, 51); fill: none; stroke-width: 1px;"/></g><g id="node-name-model" class="node graph-node" style="opacity: 1;" transform="translate(123.0322265625,52)"><g class="node-item node-item-type" transform="translate(0,0)"><path d="M5,0h39.828125a0,0 0 0 1 0,0v23a0,0 0 0 1 0,0h-39.828125a5,5 0 0 1 -5,-5v-13a5,5 0 0 1 5,-5z" style="stroke: rgb(0, 0, 0); fill: rgb(0, 0, 0); stroke-width: 0;"/><text x="6" y="16" style="font-family: -apple-system, BlinkMacSystemFont, &quot;Segoe WPC&quot;, &quot;Segoe UI&quot;, Ubuntu, &quot;Droid Sans&quot;, sans-serif, &quot;PingFang SC&quot;; font-size: 11px; text-rendering: geometricprecision; fill: rgb(255, 255, 255);">model</text><title>model</title></g><g class="node-item node-item-type" transform="translate(44.828125,0)"><path d="M0,0h15a5,5 0 0 1 5,5v13a5,5 0 0 1 -5,5h-15a0,0 0 0 1 0,0v-23a0,0 0 0 1 0,0z" style="stroke: rgb(0, 0, 0); fill: rgb(0, 0, 0); stroke-width: 0;"/><text x="6" y="16" style="font-family: -apple-system, BlinkMacSystemFont, &quot;Segoe WPC&quot;, &quot;Segoe UI&quot;, Ubuntu, &quot;Droid Sans&quot;, sans-serif, &quot;PingFang SC&quot;; font-size: 11px; text-rendering: geometricprecision; fill: rgb(255, 255, 255);">ƒ</text><title>Show Function Definition</title></g><path class="node border" d="M5,0h54.828125a5,5 0 0 1 5,5v13a5,5 0 0 1 -5,5h-54.828125a5,5 0 0 1 -5,-5v-13a5,5 0 0 1 5,-5z" style="stroke: rgb(51, 51, 51); fill: none; stroke-width: 1px;"/><line class="node" x1="44.828125" x2="44.828125" y1="0" y2="23" style="stroke: rgb(51, 51, 51); fill: none; stroke-width: 1px;"/></g><g id="node-name-lambda" class="node graph-node" style="opacity: 1;" transform="translate(235.8759765625,0)"><g class="node-item node-item-type" transform="translate(0,0)"><path d="M5,0h192.76416015625a5,5 0 0 1 5,5v18a0,0 0 0 1 0,0h-202.76416015625a0,0 0 0 1 0,0v-18a5,5 0 0 1 5,-5z" style="stroke: rgb(0, 0, 0); fill: rgb(0, 0, 0); stroke-width: 0;"/><text x="6" y="16" style="font-family: -apple-system, BlinkMacSystemFont, &quot;Segoe WPC&quot;, &quot;Segoe UI&quot;, Ubuntu, &quot;Droid Sans&quot;, sans-serif, &quot;PingFang SC&quot;; font-size: 11px; text-rendering: geometricprecision; fill: rgb(255, 255, 255);">lambda</text><title>Lambda</title></g><g class="node-attribute" transform="translate(0,23)"><path d="M0,0h202.76416015625a0,0 0 0 1 0,0v99a5,5 0 0 1 -5,5h-192.76416015625a5,5 0 0 1 -5,-5v-99a0,0 0 0 1 0,0z" style="stroke: rgb(0, 0, 0); fill: rgb(255, 255, 255); stroke-width: 0;"/><text xml:space="preserve" x="6" y="14" style="font-family: -apple-system, BlinkMacSystemFont, &quot;Segoe WPC&quot;, &quot;Segoe UI&quot;, Ubuntu, &quot;Droid Sans&quot;, sans-serif, &quot;PingFang SC&quot;; font-size: 9px; font-weight: normal; text-rendering: geometricprecision;"><tspan>arguments</tspan><tspan> = </tspan></text><text xml:space="preserve" x="6" y="28" style="font-family: -apple-system, BlinkMacSystemFont, &quot;Segoe WPC&quot;, &quot;Segoe UI&quot;, Ubuntu, &quot;Droid Sans&quot;, sans-serif, &quot;PingFang SC&quot;; font-size: 9px; font-weight: normal; text-rendering: geometricprecision;"><tspan>function</tspan><tspan> = "4wEAAAAAAAAABAAAAAcAAABD…</tspan></text><text xml:space="preserve" x="6" y="42" style="font-family: -apple-system, BlinkMacSystemFont, &quot;Segoe WPC&quot;, &quot;Segoe UI&quot;, Ubuntu, &quot;Droid Sans&quot;, sans-serif, &quot;PingFang SC&quot;; font-size: 9px; font-weight: normal; text-rendering: geometricprecision;"><tspan>function_type</tspan><tspan> = lambda</tspan></text><text xml:space="preserve" x="6" y="56" style="font-family: -apple-system, BlinkMacSystemFont, &quot;Segoe WPC&quot;, &quot;Segoe UI&quot;, Ubuntu, &quot;Droid Sans&quot;, sans-serif, &quot;PingFang SC&quot;; font-size: 9px; font-weight: normal; text-rendering: geometricprecision;"><tspan>module</tspan><tspan> = __main__</tspan></text><text xml:space="preserve" x="6" y="70" style="font-family: -apple-system, BlinkMacSystemFont, &quot;Segoe WPC&quot;, &quot;Segoe UI&quot;, Ubuntu, &quot;Droid Sans&quot;, sans-serif, &quot;PingFang SC&quot;; font-size: 9px; font-weight: normal; text-rendering: geometricprecision;"><tspan>output_shape</tspan><tspan> = </tspan></text><text xml:space="preserve" x="6" y="84" style="font-family: -apple-system, BlinkMacSystemFont, &quot;Segoe WPC&quot;, &quot;Segoe UI&quot;, Ubuntu, &quot;Droid Sans&quot;, sans-serif, &quot;PingFang SC&quot;; font-size: 9px; font-weight: normal; text-rendering: geometricprecision;"><tspan>output_shape_module</tspan><tspan> = </tspan></text><text xml:space="preserve" x="6" y="98" style="font-family: -apple-system, BlinkMacSystemFont, &quot;Segoe WPC&quot;, &quot;Segoe UI&quot;, Ubuntu, &quot;Droid Sans&quot;, sans-serif, &quot;PingFang SC&quot;; font-size: 9px; font-weight: normal; text-rendering: geometricprecision;"><tspan>output_shape_type</tspan><tspan> = raw</tspan></text><line class="node" x1="0" x2="202.76416015625" y1="0" y2="0" style="stroke: rgb(51, 51, 51); fill: none; stroke-width: 1px;"/></g><path class="node border" d="M5,0h192.76416015625a5,5 0 0 1 5,5v117a5,5 0 0 1 -5,5h-192.76416015625a5,5 0 0 1 -5,-5v-117a5,5 0 0 1 5,-5z" style="stroke: rgb(51, 51, 51); fill: none; stroke-width: 1px;"/></g><g class="node" style="opacity: 1;" transform="translate(491.62451171875,52)"><g class="node-item graph-item-output" transform="translate(0,0)"><path d="M5,0h40.6796875a5,5 0 0 1 5,5v13a5,5 0 0 1 -5,5h-40.6796875a5,5 0 0 1 -5,-5v-13a5,5 0 0 1 5,-5z" style="stroke: rgb(0, 0, 0); fill: rgb(238, 238, 238); stroke-width: 0;"/><text x="6" y="16" style="font-family: -apple-system, BlinkMacSystemFont, &quot;Segoe WPC&quot;, &quot;Segoe UI&quot;, Ubuntu, &quot;Droid Sans&quot;, sans-serif, &quot;PingFang SC&quot;; font-size: 11px; text-rendering: geometricprecision;">lambda</text></g><path class="node border" d="M5,0h40.6796875a5,5 0 0 1 5,5v13a5,5 0 0 1 -5,5h-40.6796875a5,5 0 0 1 -5,-5v-13a5,5 0 0 1 5,-5z" style="stroke: rgb(51, 51, 51); fill: none; stroke-width: 1px;"/></g></g></g></svg>